<svg width="16" height="16" viewBox="0 0 20 20" fill="none" xmlns="http://www.w3.org/2000/svg">
<mask id="path-1-inside-1_1_4110" fill="white">
<path d="M0 3C0 1.34315 1.34315 0 3 0H17C18.6569 0 20 1.34315 20 3V17C20 18.6569 18.6569 20 17 20H3C1.34315 20 0 18.6569 0 17V3Z"/>
</mask>
<path d="M9.2857 4.25027C8.87148 4.25027 8.5357 4.58605 8.5357 5.00027C8.5357 5.41448 8.87148 5.75027 9.2857 5.75027V4.25027ZM14.25 10.7146C14.25 11.1288 14.5857 11.4646 15 11.4646C15.4142 11.4646 15.75 11.1288 15.75 10.7146H14.25ZM15.5303 5.53033C15.8232 5.23744 15.8232 4.76256 15.5303 4.46967C15.2374 4.17678 14.7626 4.17678 14.4697 4.46967L15.5303 5.53033ZM5.18396 13.7554C4.89106 14.0483 4.89106 14.5232 5.18396 14.816C5.47685 15.1089 5.95172 15.1089 6.24462 14.816L5.18396 13.7554ZM14.6635 4.25027H9.2857V5.75027H14.6635V4.25027ZM15.75 5.3376C15.75 5.27156 15.7511 5.15859 15.7401 5.05999C15.7299 4.96711 15.6954 4.71982 15.4889 4.51281C15.2821 4.3054 15.0345 4.27055 14.9411 4.26015C14.8423 4.24915 14.7292 4.25027 14.6635 4.25027V5.75027C14.766 5.75027 14.7791 5.75139 14.775 5.75093C14.767 5.75004 14.7229 5.74507 14.6632 5.72351C14.5972 5.6997 14.5091 5.65453 14.4269 5.57206C14.3447 5.48965 14.2999 5.40163 14.2763 5.33605C14.255 5.27665 14.2501 5.23289 14.2493 5.22517C14.2489 5.22145 14.25 5.23498 14.25 5.3376H15.75ZM14.25 5.3376V10.7146H15.75V5.3376H14.25ZM14.4697 4.46967L5.18396 13.7554L6.24462 14.816L15.5303 5.53033L14.4697 4.46967ZM3 1.5H17V-1.5H3V1.5ZM18.5 3V17H21.5V3H18.5ZM17 18.5H3V21.5H17V18.5ZM1.5 17V3H-1.5V17H1.5ZM3 18.5C2.17157 18.5 1.5 17.8284 1.5 17H-1.5C-1.5 19.4853 0.514718 21.5 3 21.5V18.5ZM18.5 17C18.5 17.8284 17.8284 18.5 17 18.5V21.5C19.4853 21.5 21.5 19.4853 21.5 17H18.5ZM17 1.5C17.8284 1.5 18.5 2.17157 18.5 3H21.5C21.5 0.514719 19.4853 -1.5 17 -1.5V1.5ZM3 -1.5C0.514719 -1.5 -1.5 0.514718 -1.5 3H1.5C1.5 2.17157 2.17157 1.5 3 1.5V-1.5Z" fill="#8A6EFF" mask="url(#path-1-inside-1_1_4110)"/>
</svg>
